<mxfile host="app.diagrams.net" agent="Mozilla/5.0 (Windows NT 10.0; Win64; x64) AppleWebKit/537.36 (KHTML, like Gecko) Chrome/127.0.0.0 Safari/537.36 Edg/127.0.0.0" modified="2024-10-09T23:22:11.817Z" version="24.4.8" etag="txY11O2HEvQgOgMv3Y5r" type="github">
  <diagram name="Page-1" id="2XCxbF22dE6q91wBarKa">
    <mxGraphModel dx="4594" dy="1310" grid="1" gridSize="10" guides="1" tooltips="1" connect="1" arrows="1" fold="1" page="1" pageScale="2" pageWidth="1700" pageHeight="1100" math="0" shadow="0">
      <root>
        <mxCell id="0" />
        <mxCell id="1" parent="0" />
        <mxCell id="gG4E77Slg6esJ78CiQ0k-130" style="edgeStyle=orthogonalEdgeStyle;rounded=0;orthogonalLoop=1;jettySize=auto;html=1;entryX=0;entryY=0.5;entryDx=0;entryDy=0;" edge="1" parent="1" source="Jw_Es80HdWXodM1tKVZ8-2" target="gG4E77Slg6esJ78CiQ0k-109">
          <mxGeometry relative="1" as="geometry" />
        </mxCell>
        <mxCell id="Jw_Es80HdWXodM1tKVZ8-2" value="&lt;span style=&quot;font-size:10.5pt;mso-bidi-font-size:&lt;br/&gt;11.0pt;font-family:&amp;quot;Times New Roman&amp;quot;,serif;mso-fareast-font-family:等线;&lt;br/&gt;mso-fareast-theme-font:minor-fareast;mso-ansi-language:EN-US;mso-fareast-language:&lt;br/&gt;ZH-CN;mso-bidi-language:AR-SA&quot; lang=&quot;EN-US&quot;&gt;Регистрация\Вход&lt;/span&gt;&lt;div&gt;&lt;span style=&quot;font-size:10.5pt;mso-bidi-font-size:&lt;br/&gt;11.0pt;font-family:&amp;quot;Times New Roman&amp;quot;,serif;mso-fareast-font-family:等线;&lt;br/&gt;mso-fareast-theme-font:minor-fareast;mso-ansi-language:EN-US;mso-fareast-language:&lt;br/&gt;ZH-CN;mso-bidi-language:AR-SA&quot; lang=&quot;EN-US&quot;&gt;\Выход&lt;/span&gt;&lt;/div&gt;" style="rounded=1;whiteSpace=wrap;html=1;" parent="1" vertex="1">
          <mxGeometry x="860" y="1040" width="120" height="60" as="geometry" />
        </mxCell>
        <mxCell id="gG4E77Slg6esJ78CiQ0k-153" style="edgeStyle=orthogonalEdgeStyle;rounded=0;orthogonalLoop=1;jettySize=auto;html=1;entryX=0;entryY=0.5;entryDx=0;entryDy=0;" edge="1" parent="1" source="Jw_Es80HdWXodM1tKVZ8-5" target="gG4E77Slg6esJ78CiQ0k-109">
          <mxGeometry relative="1" as="geometry">
            <Array as="points">
              <mxPoint x="1150" y="740" />
              <mxPoint x="1150" y="1440" />
            </Array>
          </mxGeometry>
        </mxCell>
        <mxCell id="Jw_Es80HdWXodM1tKVZ8-5" value="поиск по содержимому" style="rounded=1;whiteSpace=wrap;html=1;" parent="1" vertex="1">
          <mxGeometry x="860" y="710" width="150" height="60" as="geometry" />
        </mxCell>
        <mxCell id="Jw_Es80HdWXodM1tKVZ8-7" value="&lt;span style=&quot;font-size:10.5pt;mso-bidi-font-size:&lt;br/&gt;11.0pt;font-family:&amp;quot;Times New Roman&amp;quot;,serif;mso-fareast-font-family:等线;&lt;br/&gt;mso-fareast-theme-font:minor-fareast;mso-ansi-language:RU;mso-fareast-language:&lt;br/&gt;ZH-CN;mso-bidi-language:AR-SA&quot; lang=&quot;RU&quot;&gt;Раздел «Кто на Kaggle?»&lt;/span&gt;" style="rounded=1;whiteSpace=wrap;html=1;" parent="1" vertex="1">
          <mxGeometry x="610" y="400" width="120" height="60" as="geometry" />
        </mxCell>
        <mxCell id="gG4E77Slg6esJ78CiQ0k-114" style="edgeStyle=orthogonalEdgeStyle;rounded=0;orthogonalLoop=1;jettySize=auto;html=1;entryX=0;entryY=0.5;entryDx=0;entryDy=0;" edge="1" parent="1" source="Jw_Es80HdWXodM1tKVZ8-8" target="gG4E77Slg6esJ78CiQ0k-109">
          <mxGeometry relative="1" as="geometry" />
        </mxCell>
        <mxCell id="Jw_Es80HdWXodM1tKVZ8-8" value="&lt;span style=&quot;font-size:10.5pt;mso-bidi-font-size:&lt;br/&gt;11.0pt;font-family:&amp;quot;Times New Roman&amp;quot;,serif;mso-fareast-font-family:等线;&lt;br/&gt;mso-fareast-theme-font:minor-fareast;mso-ansi-language:RU;mso-fareast-language:&lt;br/&gt;ZH-CN;mso-bidi-language:AR-SA&quot; lang=&quot;RU&quot;&gt;Раздел «Набор данных»&lt;/span&gt;" style="rounded=1;whiteSpace=wrap;html=1;" parent="1" vertex="1">
          <mxGeometry x="860" y="1120" width="120" height="60" as="geometry" />
        </mxCell>
        <mxCell id="gG4E77Slg6esJ78CiQ0k-129" style="edgeStyle=orthogonalEdgeStyle;rounded=0;orthogonalLoop=1;jettySize=auto;html=1;entryX=0;entryY=0.5;entryDx=0;entryDy=0;" edge="1" parent="1" source="Jw_Es80HdWXodM1tKVZ8-9" target="gG4E77Slg6esJ78CiQ0k-109">
          <mxGeometry relative="1" as="geometry" />
        </mxCell>
        <mxCell id="Jw_Es80HdWXodM1tKVZ8-9" value="&lt;span style=&quot;font-size:10.5pt;mso-bidi-font-size:&lt;br/&gt;11.0pt;font-family:&amp;quot;Times New Roman&amp;quot;,serif;mso-fareast-font-family:等线;&lt;br/&gt;mso-fareast-theme-font:minor-fareast;mso-ansi-language:RU;mso-fareast-language:&lt;br/&gt;ZH-CN;mso-bidi-language:AR-SA&quot; lang=&quot;RU&quot;&gt;Раздел «Блокнот»&lt;/span&gt;" style="rounded=1;whiteSpace=wrap;html=1;" parent="1" vertex="1">
          <mxGeometry x="860" y="1190" width="120" height="60" as="geometry" />
        </mxCell>
        <mxCell id="gG4E77Slg6esJ78CiQ0k-115" style="edgeStyle=orthogonalEdgeStyle;rounded=0;orthogonalLoop=1;jettySize=auto;html=1;entryX=0;entryY=0.5;entryDx=0;entryDy=0;" edge="1" parent="1" source="Jw_Es80HdWXodM1tKVZ8-10" target="gG4E77Slg6esJ78CiQ0k-109">
          <mxGeometry relative="1" as="geometry" />
        </mxCell>
        <mxCell id="Jw_Es80HdWXodM1tKVZ8-10" value="&lt;span style=&quot;font-size:10.5pt;mso-bidi-font-size:&lt;br/&gt;11.0pt;font-family:&amp;quot;Times New Roman&amp;quot;,serif;mso-fareast-font-family:等线;&lt;br/&gt;mso-fareast-theme-font:minor-fareast;mso-ansi-language:RU;mso-fareast-language:&lt;br/&gt;ZH-CN;mso-bidi-language:AR-SA&quot; lang=&quot;RU&quot;&gt;Раздел «Модель»&lt;/span&gt;" style="rounded=1;whiteSpace=wrap;html=1;" parent="1" vertex="1">
          <mxGeometry x="860" y="1260" width="120" height="60" as="geometry" />
        </mxCell>
        <mxCell id="gG4E77Slg6esJ78CiQ0k-116" style="edgeStyle=orthogonalEdgeStyle;rounded=0;orthogonalLoop=1;jettySize=auto;html=1;entryX=0;entryY=0.5;entryDx=0;entryDy=0;" edge="1" parent="1" source="Jw_Es80HdWXodM1tKVZ8-11" target="gG4E77Slg6esJ78CiQ0k-109">
          <mxGeometry relative="1" as="geometry" />
        </mxCell>
        <mxCell id="Jw_Es80HdWXodM1tKVZ8-11" value="&lt;span style=&quot;font-size:10.5pt;mso-bidi-font-size:&lt;br/&gt;11.0pt;font-family:&amp;quot;Times New Roman&amp;quot;,serif;mso-fareast-font-family:等线;&lt;br/&gt;mso-fareast-theme-font:minor-fareast;mso-ansi-language:RU;mso-fareast-language:&lt;br/&gt;ZH-CN;mso-bidi-language:AR-SA&quot; lang=&quot;RU&quot;&gt;Раздел «Конкурс»&lt;/span&gt;" style="rounded=1;whiteSpace=wrap;html=1;" parent="1" vertex="1">
          <mxGeometry x="860" y="1330" width="120" height="60" as="geometry" />
        </mxCell>
        <mxCell id="gG4E77Slg6esJ78CiQ0k-117" style="edgeStyle=orthogonalEdgeStyle;rounded=0;orthogonalLoop=1;jettySize=auto;html=1;entryX=0;entryY=0.5;entryDx=0;entryDy=0;" edge="1" parent="1" source="Jw_Es80HdWXodM1tKVZ8-13" target="gG4E77Slg6esJ78CiQ0k-109">
          <mxGeometry relative="1" as="geometry" />
        </mxCell>
        <mxCell id="Jw_Es80HdWXodM1tKVZ8-13" value="&lt;span style=&quot;font-size:10.5pt;mso-bidi-font-size:&lt;br/&gt;11.0pt;font-family:&amp;quot;Times New Roman&amp;quot;,serif;mso-fareast-font-family:等线;&lt;br/&gt;mso-fareast-theme-font:minor-fareast;mso-ansi-language:RU;mso-fareast-language:&lt;br/&gt;ZH-CN;mso-bidi-language:AR-SA&quot; lang=&quot;RU&quot;&gt;Раздел «Написание решения»&lt;/span&gt;" style="rounded=1;whiteSpace=wrap;html=1;" parent="1" vertex="1">
          <mxGeometry x="860" y="1410" width="120" height="60" as="geometry" />
        </mxCell>
        <mxCell id="gG4E77Slg6esJ78CiQ0k-118" style="edgeStyle=orthogonalEdgeStyle;rounded=0;orthogonalLoop=1;jettySize=auto;html=1;entryX=0;entryY=0.5;entryDx=0;entryDy=0;" edge="1" parent="1" source="Jw_Es80HdWXodM1tKVZ8-14" target="gG4E77Slg6esJ78CiQ0k-109">
          <mxGeometry relative="1" as="geometry" />
        </mxCell>
        <mxCell id="Jw_Es80HdWXodM1tKVZ8-14" value="&lt;span style=&quot;font-size:10.5pt;mso-bidi-font-size:&lt;br/&gt;11.0pt;font-family:&amp;quot;Times New Roman&amp;quot;,serif;mso-fareast-font-family:等线;&lt;br/&gt;mso-fareast-theme-font:minor-fareast;mso-ansi-language:RU;mso-fareast-language:&lt;br/&gt;ZH-CN;mso-bidi-language:AR-SA&quot; lang=&quot;RU&quot;&gt;Раздел «Курс»&lt;/span&gt;" style="rounded=1;whiteSpace=wrap;html=1;" parent="1" vertex="1">
          <mxGeometry x="860" y="1480" width="120" height="60" as="geometry" />
        </mxCell>
        <mxCell id="gG4E77Slg6esJ78CiQ0k-112" style="edgeStyle=orthogonalEdgeStyle;rounded=0;orthogonalLoop=1;jettySize=auto;html=1;entryX=0;entryY=0.5;entryDx=0;entryDy=0;" edge="1" parent="1" source="Jw_Es80HdWXodM1tKVZ8-15" target="gG4E77Slg6esJ78CiQ0k-109">
          <mxGeometry relative="1" as="geometry" />
        </mxCell>
        <mxCell id="Jw_Es80HdWXodM1tKVZ8-15" value="&lt;span style=&quot;font-size:10.5pt;mso-bidi-font-size:&lt;br/&gt;11.0pt;font-family:&amp;quot;Times New Roman&amp;quot;,serif;mso-fareast-font-family:等线;&lt;br/&gt;mso-fareast-theme-font:minor-fareast;mso-ansi-language:RU;mso-fareast-language:&lt;br/&gt;ZH-CN;mso-bidi-language:AR-SA&quot; lang=&quot;RU&quot;&gt;раздел «Обсуждение»&lt;/span&gt;" style="rounded=1;whiteSpace=wrap;html=1;" parent="1" vertex="1">
          <mxGeometry x="860" y="960" width="120" height="60" as="geometry" />
        </mxCell>
        <mxCell id="gG4E77Slg6esJ78CiQ0k-110" style="edgeStyle=orthogonalEdgeStyle;rounded=0;orthogonalLoop=1;jettySize=auto;html=1;entryX=0;entryY=0.5;entryDx=0;entryDy=0;" edge="1" parent="1" source="Jw_Es80HdWXodM1tKVZ8-16" target="gG4E77Slg6esJ78CiQ0k-109">
          <mxGeometry relative="1" as="geometry" />
        </mxCell>
        <mxCell id="Jw_Es80HdWXodM1tKVZ8-16" value="&lt;span style=&quot;font-size:10.5pt;mso-bidi-font-size:&lt;br/&gt;11.0pt;font-family:&amp;quot;Times New Roman&amp;quot;,serif;mso-fareast-font-family:等线;&lt;br/&gt;mso-fareast-theme-font:minor-fareast;mso-ansi-language:RU;mso-fareast-language:&lt;br/&gt;ZH-CN;mso-bidi-language:AR-SA&quot; lang=&quot;RU&quot;&gt;Раздел «Еще»&lt;/span&gt;" style="rounded=1;whiteSpace=wrap;html=1;" parent="1" vertex="1">
          <mxGeometry x="860" y="800" width="120" height="60" as="geometry" />
        </mxCell>
        <mxCell id="gG4E77Slg6esJ78CiQ0k-131" style="edgeStyle=orthogonalEdgeStyle;rounded=0;orthogonalLoop=1;jettySize=auto;html=1;entryX=0;entryY=0.5;entryDx=0;entryDy=0;" edge="1" parent="1" source="Jw_Es80HdWXodM1tKVZ8-18" target="gG4E77Slg6esJ78CiQ0k-109">
          <mxGeometry relative="1" as="geometry" />
        </mxCell>
        <mxCell id="Jw_Es80HdWXodM1tKVZ8-18" value="&lt;span style=&quot;font-size:10.5pt;mso-bidi-font-size:&lt;br/&gt;11.0pt;font-family:&amp;quot;Times New Roman&amp;quot;,serif;mso-fareast-font-family:等线;&lt;br/&gt;mso-fareast-theme-font:minor-fareast;mso-ansi-language:RU;mso-fareast-language:&lt;br/&gt;ZH-CN;mso-bidi-language:AR-SA&quot; lang=&quot;RU&quot;&gt;Раздел «Рейтинг пользователей»&lt;/span&gt;" style="rounded=1;whiteSpace=wrap;html=1;" parent="1" vertex="1">
          <mxGeometry x="860" y="880" width="120" height="60" as="geometry" />
        </mxCell>
        <mxCell id="gG4E77Slg6esJ78CiQ0k-123" style="edgeStyle=orthogonalEdgeStyle;rounded=0;orthogonalLoop=1;jettySize=auto;html=1;entryX=0;entryY=0.5;entryDx=0;entryDy=0;" edge="1" parent="1" source="Jw_Es80HdWXodM1tKVZ8-20" target="gG4E77Slg6esJ78CiQ0k-109">
          <mxGeometry relative="1" as="geometry" />
        </mxCell>
        <mxCell id="Jw_Es80HdWXodM1tKVZ8-20" value="&lt;span style=&quot;font-size:10.5pt;mso-bidi-font-size:&lt;br/&gt;11.0pt;font-family:&amp;quot;Times New Roman&amp;quot;,serif;mso-fareast-font-family:等线;&lt;br/&gt;mso-fareast-theme-font:minor-fareast;mso-ansi-language:RU;mso-fareast-language:&lt;br/&gt;ZH-CN;mso-bidi-language:AR-SA&quot; lang=&quot;RU&quot;&gt;Раздел «Документация»&lt;/span&gt;" style="rounded=1;whiteSpace=wrap;html=1;" parent="1" vertex="1">
          <mxGeometry x="860" y="1640" width="120" height="60" as="geometry" />
        </mxCell>
        <mxCell id="gG4E77Slg6esJ78CiQ0k-124" style="edgeStyle=orthogonalEdgeStyle;rounded=0;orthogonalLoop=1;jettySize=auto;html=1;entryX=0;entryY=0.5;entryDx=0;entryDy=0;" edge="1" parent="1" source="Jw_Es80HdWXodM1tKVZ8-21" target="gG4E77Slg6esJ78CiQ0k-109">
          <mxGeometry relative="1" as="geometry" />
        </mxCell>
        <mxCell id="Jw_Es80HdWXodM1tKVZ8-21" value="&lt;span style=&quot;font-size:10.5pt;mso-bidi-font-size:&lt;br/&gt;11.0pt;font-family:&amp;quot;Times New Roman&amp;quot;,serif;mso-fareast-font-family:等线;&lt;br/&gt;mso-fareast-theme-font:minor-fareast;mso-ansi-language:RU;mso-fareast-language:&lt;br/&gt;ZH-CN;mso-bidi-language:AR-SA&quot; lang=&quot;RU&quot;&gt;Раздел «Провести конкурс»&lt;/span&gt;" style="rounded=1;whiteSpace=wrap;html=1;" parent="1" vertex="1">
          <mxGeometry x="860" y="1720" width="120" height="60" as="geometry" />
        </mxCell>
        <mxCell id="gG4E77Slg6esJ78CiQ0k-119" style="edgeStyle=orthogonalEdgeStyle;rounded=0;orthogonalLoop=1;jettySize=auto;html=1;entryX=0;entryY=0.5;entryDx=0;entryDy=0;" edge="1" parent="1" source="Jw_Es80HdWXodM1tKVZ8-22" target="gG4E77Slg6esJ78CiQ0k-109">
          <mxGeometry relative="1" as="geometry" />
        </mxCell>
        <mxCell id="Jw_Es80HdWXodM1tKVZ8-22" value="&lt;span style=&quot;font-size:10.5pt;mso-bidi-font-size:&lt;br/&gt;11.0pt;font-family:&amp;quot;Times New Roman&amp;quot;,serif;mso-fareast-font-family:等线;&lt;br/&gt;mso-fareast-theme-font:minor-fareast;mso-ansi-language:RU;mso-fareast-language:&lt;br/&gt;ZH-CN;mso-bidi-language:AR-SA&quot; lang=&quot;RU&quot;&gt;Раздел «&lt;/span&gt;&lt;span style=&quot;font-size:10.5pt;mso-bidi-font-size:11.0pt;font-family:&amp;quot;Times New Roman&amp;quot;,serif;&lt;br/&gt;mso-fareast-font-family:等线;mso-fareast-theme-font:minor-fareast;mso-ansi-language:&lt;br/&gt;EN-US;mso-fareast-language:ZH-CN;mso-bidi-language:AR-SA&quot; lang=&quot;EN-US&quot;&gt;перемещение&lt;/span&gt;&lt;span style=&quot;font-size:10.5pt;mso-bidi-font-size:11.0pt;font-family:&amp;quot;Times New Roman&amp;quot;,serif;&lt;br/&gt;mso-fareast-font-family:等线;mso-fareast-theme-font:minor-fareast;mso-ansi-language:&lt;br/&gt;RU;mso-fareast-language:ZH-CN;mso-bidi-language:AR-SA&quot; lang=&quot;RU&quot;&gt;»&lt;/span&gt;" style="rounded=1;whiteSpace=wrap;html=1;" parent="1" vertex="1">
          <mxGeometry x="860" y="1560" width="120" height="60" as="geometry" />
        </mxCell>
        <mxCell id="gG4E77Slg6esJ78CiQ0k-134" style="edgeStyle=orthogonalEdgeStyle;rounded=0;orthogonalLoop=1;jettySize=auto;html=1;entryX=0;entryY=0.5;entryDx=0;entryDy=0;" edge="1" parent="1" source="Jw_Es80HdWXodM1tKVZ8-23" target="gG4E77Slg6esJ78CiQ0k-109">
          <mxGeometry relative="1" as="geometry">
            <Array as="points">
              <mxPoint x="1150" y="2000" />
              <mxPoint x="1150" y="1440" />
            </Array>
          </mxGeometry>
        </mxCell>
        <mxCell id="Jw_Es80HdWXodM1tKVZ8-23" value="&lt;span style=&quot;font-size:10.5pt;mso-bidi-font-size:&lt;br/&gt;11.0pt;font-family:&amp;quot;Times New Roman&amp;quot;,serif;mso-fareast-font-family:等线;&lt;br/&gt;mso-fareast-theme-font:minor-fareast;mso-ansi-language:RU;mso-fareast-language:&lt;br/&gt;ZH-CN;mso-bidi-language:AR-SA&quot; lang=&quot;RU&quot;&gt;Раздел &quot;KaggleX&quot;&lt;/span&gt;" style="rounded=1;whiteSpace=wrap;html=1;" parent="1" vertex="1">
          <mxGeometry x="1010" y="1970" width="120" height="60" as="geometry" />
        </mxCell>
        <mxCell id="gG4E77Slg6esJ78CiQ0k-125" style="edgeStyle=orthogonalEdgeStyle;rounded=0;orthogonalLoop=1;jettySize=auto;html=1;entryX=0;entryY=0.5;entryDx=0;entryDy=0;fillColor=#e51400;strokeColor=#B20000;strokeWidth=3;" edge="1" parent="1" source="Jw_Es80HdWXodM1tKVZ8-24" target="gG4E77Slg6esJ78CiQ0k-109">
          <mxGeometry relative="1" as="geometry">
            <mxPoint x="1210" y="1560" as="targetPoint" />
          </mxGeometry>
        </mxCell>
        <mxCell id="Jw_Es80HdWXodM1tKVZ8-24" value="&lt;span style=&quot;font-size:10.5pt;mso-bidi-font-size:&lt;br/&gt;11.0pt;font-family:&amp;quot;Times New Roman&amp;quot;,serif;mso-fareast-font-family:等线;&lt;br/&gt;mso-fareast-theme-font:minor-fareast;mso-ansi-language:RU;mso-fareast-language:&lt;br/&gt;ZH-CN;mso-bidi-language:AR-SA&quot; lang=&quot;RU&quot;&gt;Раздел «Помощь»&lt;/span&gt;" style="rounded=1;whiteSpace=wrap;html=1;" parent="1" vertex="1">
          <mxGeometry x="860" y="1800" width="120" height="60" as="geometry" />
        </mxCell>
        <mxCell id="gG4E77Slg6esJ78CiQ0k-126" style="edgeStyle=orthogonalEdgeStyle;rounded=0;orthogonalLoop=1;jettySize=auto;html=1;entryX=0;entryY=0.5;entryDx=0;entryDy=0;" edge="1" parent="1" source="Jw_Es80HdWXodM1tKVZ8-26" target="gG4E77Slg6esJ78CiQ0k-109">
          <mxGeometry relative="1" as="geometry" />
        </mxCell>
        <mxCell id="Jw_Es80HdWXodM1tKVZ8-26" value="&lt;span style=&quot;font-size:10.5pt;mso-bidi-font-size:&lt;br/&gt;11.0pt;font-family:&amp;quot;Times New Roman&amp;quot;,serif;mso-fareast-font-family:等线;&lt;br/&gt;mso-fareast-theme-font:minor-fareast;mso-ansi-language:RU;mso-fareast-language:&lt;br/&gt;ZH-CN;mso-bidi-language:AR-SA&quot; lang=&quot;RU&quot;&gt;Раздел «Принципы сообщества»&lt;/span&gt;" style="rounded=1;whiteSpace=wrap;html=1;" parent="1" vertex="1">
          <mxGeometry x="860" y="1880" width="120" height="60" as="geometry" />
        </mxCell>
        <mxCell id="gG4E77Slg6esJ78CiQ0k-63" style="edgeStyle=orthogonalEdgeStyle;rounded=0;orthogonalLoop=1;jettySize=auto;html=1;" edge="1" parent="1" source="Jw_Es80HdWXodM1tKVZ8-27" target="Jw_Es80HdWXodM1tKVZ8-23">
          <mxGeometry relative="1" as="geometry" />
        </mxCell>
        <mxCell id="Jw_Es80HdWXodM1tKVZ8-27" value="&lt;span style=&quot;font-size:10.5pt;mso-bidi-font-size:&lt;br/&gt;11.0pt;font-family:&amp;quot;Times New Roman&amp;quot;,serif;mso-fareast-font-family:等线;&lt;br/&gt;mso-fareast-theme-font:minor-fareast;mso-ansi-language:RU;mso-fareast-language:&lt;br/&gt;ZH-CN;mso-bidi-language:AR-SA&quot; lang=&quot;RU&quot;&gt;Раздел ссылок&lt;/span&gt;" style="rounded=1;whiteSpace=wrap;html=1;" parent="1" vertex="1">
          <mxGeometry x="860" y="1970" width="120" height="60" as="geometry" />
        </mxCell>
        <mxCell id="gG4E77Slg6esJ78CiQ0k-128" style="edgeStyle=orthogonalEdgeStyle;rounded=0;orthogonalLoop=1;jettySize=auto;html=1;entryX=0;entryY=0.5;entryDx=0;entryDy=0;" edge="1" parent="1" source="Jw_Es80HdWXodM1tKVZ8-28" target="gG4E77Slg6esJ78CiQ0k-109">
          <mxGeometry relative="1" as="geometry">
            <mxPoint x="1340" y="1460" as="targetPoint" />
          </mxGeometry>
        </mxCell>
        <mxCell id="Jw_Es80HdWXodM1tKVZ8-28" value="&lt;span style=&quot;font-size:10.5pt;mso-bidi-font-size:&lt;br/&gt;11.0pt;font-family:&amp;quot;Times New Roman&amp;quot;,serif;mso-fareast-font-family:等线;&lt;br/&gt;mso-fareast-theme-font:minor-fareast;mso-ansi-language:RU;mso-fareast-language:&lt;br/&gt;ZH-CN;mso-bidi-language:AR-SA&quot; lang=&quot;RU&quot;&gt;Поддержка мобильных устройств&lt;/span&gt;" style="rounded=1;whiteSpace=wrap;html=1;" parent="1" vertex="1">
          <mxGeometry x="860" y="2060" width="120" height="60" as="geometry" />
        </mxCell>
        <mxCell id="gG4E77Slg6esJ78CiQ0k-133" style="edgeStyle=orthogonalEdgeStyle;rounded=0;orthogonalLoop=1;jettySize=auto;html=1;entryX=0;entryY=0.5;entryDx=0;entryDy=0;" edge="1" parent="1" source="Jw_Es80HdWXodM1tKVZ8-29" target="gG4E77Slg6esJ78CiQ0k-109">
          <mxGeometry relative="1" as="geometry">
            <mxPoint x="1520" y="1470" as="targetPoint" />
            <Array as="points">
              <mxPoint x="1150" y="2170" />
              <mxPoint x="1150" y="1440" />
            </Array>
          </mxGeometry>
        </mxCell>
        <mxCell id="Jw_Es80HdWXodM1tKVZ8-29" value="&lt;span style=&quot;font-size:10.5pt;mso-bidi-font-size:&lt;br/&gt;11.0pt;font-family:&amp;quot;Times New Roman&amp;quot;,serif;mso-fareast-font-family:等线;&lt;br/&gt;mso-fareast-theme-font:minor-fareast;mso-ansi-language:RU;mso-fareast-language:&lt;br/&gt;ZH-CN;mso-bidi-language:AR-SA&quot; lang=&quot;RU&quot;&gt;Условия&lt;/span&gt;" style="rounded=1;whiteSpace=wrap;html=1;" parent="1" vertex="1">
          <mxGeometry x="860" y="2140" width="120" height="60" as="geometry" />
        </mxCell>
        <mxCell id="gG4E77Slg6esJ78CiQ0k-1" value="Проработка структуры сайта" style="rounded=0;whiteSpace=wrap;html=1;" vertex="1" parent="1">
          <mxGeometry x="40" y="1220" width="120" height="60" as="geometry" />
        </mxCell>
        <mxCell id="gG4E77Slg6esJ78CiQ0k-2" value="Проработка дизайна" style="rounded=0;whiteSpace=wrap;html=1;" vertex="1" parent="1">
          <mxGeometry x="40" y="1320" width="120" height="60" as="geometry" />
        </mxCell>
        <mxCell id="gG4E77Slg6esJ78CiQ0k-3" value="Создание макета сайта (Figma)" style="rounded=0;whiteSpace=wrap;html=1;" vertex="1" parent="1">
          <mxGeometry x="50" y="1410" width="120" height="60" as="geometry" />
        </mxCell>
        <mxCell id="gG4E77Slg6esJ78CiQ0k-4" value="Выбор технологий" style="rounded=0;whiteSpace=wrap;html=1;" vertex="1" parent="1">
          <mxGeometry x="40" y="1520" width="120" height="60" as="geometry" />
        </mxCell>
        <mxCell id="gG4E77Slg6esJ78CiQ0k-5" value="Аренда хостинга" style="rounded=0;whiteSpace=wrap;html=1;" vertex="1" parent="1">
          <mxGeometry x="40" y="1620" width="120" height="60" as="geometry" />
        </mxCell>
        <mxCell id="gG4E77Slg6esJ78CiQ0k-8" style="edgeStyle=orthogonalEdgeStyle;rounded=0;orthogonalLoop=1;jettySize=auto;html=1;entryX=0;entryY=0.75;entryDx=0;entryDy=0;" edge="1" parent="1" source="gG4E77Slg6esJ78CiQ0k-6" target="gG4E77Slg6esJ78CiQ0k-1">
          <mxGeometry relative="1" as="geometry" />
        </mxCell>
        <mxCell id="gG4E77Slg6esJ78CiQ0k-9" style="edgeStyle=orthogonalEdgeStyle;rounded=0;orthogonalLoop=1;jettySize=auto;html=1;entryX=0;entryY=0.5;entryDx=0;entryDy=0;" edge="1" parent="1" source="gG4E77Slg6esJ78CiQ0k-6" target="gG4E77Slg6esJ78CiQ0k-2">
          <mxGeometry relative="1" as="geometry" />
        </mxCell>
        <mxCell id="gG4E77Slg6esJ78CiQ0k-10" style="edgeStyle=orthogonalEdgeStyle;rounded=0;orthogonalLoop=1;jettySize=auto;html=1;" edge="1" parent="1" source="gG4E77Slg6esJ78CiQ0k-6" target="gG4E77Slg6esJ78CiQ0k-3">
          <mxGeometry relative="1" as="geometry" />
        </mxCell>
        <mxCell id="gG4E77Slg6esJ78CiQ0k-11" style="edgeStyle=orthogonalEdgeStyle;rounded=0;orthogonalLoop=1;jettySize=auto;html=1;entryX=0;entryY=0.5;entryDx=0;entryDy=0;" edge="1" parent="1" source="gG4E77Slg6esJ78CiQ0k-6" target="gG4E77Slg6esJ78CiQ0k-4">
          <mxGeometry relative="1" as="geometry" />
        </mxCell>
        <mxCell id="gG4E77Slg6esJ78CiQ0k-12" style="edgeStyle=orthogonalEdgeStyle;rounded=0;orthogonalLoop=1;jettySize=auto;html=1;entryX=0;entryY=0.5;entryDx=0;entryDy=0;" edge="1" parent="1" source="gG4E77Slg6esJ78CiQ0k-6" target="gG4E77Slg6esJ78CiQ0k-5">
          <mxGeometry relative="1" as="geometry" />
        </mxCell>
        <mxCell id="gG4E77Slg6esJ78CiQ0k-6" value="начало" style="rounded=0;whiteSpace=wrap;html=1;" vertex="1" parent="1">
          <mxGeometry x="-200" y="1410" width="120" height="60" as="geometry" />
        </mxCell>
        <mxCell id="gG4E77Slg6esJ78CiQ0k-15" style="edgeStyle=orthogonalEdgeStyle;rounded=0;orthogonalLoop=1;jettySize=auto;html=1;exitX=1;exitY=0.5;exitDx=0;exitDy=0;entryX=0;entryY=0.5;entryDx=0;entryDy=0;" edge="1" parent="1" source="gG4E77Slg6esJ78CiQ0k-1" target="gG4E77Slg6esJ78CiQ0k-13">
          <mxGeometry relative="1" as="geometry" />
        </mxCell>
        <mxCell id="gG4E77Slg6esJ78CiQ0k-16" style="edgeStyle=orthogonalEdgeStyle;rounded=0;orthogonalLoop=1;jettySize=auto;html=1;exitX=1;exitY=0.5;exitDx=0;exitDy=0;entryX=0;entryY=0.5;entryDx=0;entryDy=0;strokeWidth=3;fillColor=#e51400;strokeColor=#B20000;" edge="1" parent="1" source="gG4E77Slg6esJ78CiQ0k-2" target="gG4E77Slg6esJ78CiQ0k-13">
          <mxGeometry relative="1" as="geometry" />
        </mxCell>
        <mxCell id="gG4E77Slg6esJ78CiQ0k-17" style="edgeStyle=orthogonalEdgeStyle;rounded=0;orthogonalLoop=1;jettySize=auto;html=1;exitX=1;exitY=0.5;exitDx=0;exitDy=0;" edge="1" parent="1" source="gG4E77Slg6esJ78CiQ0k-3" target="gG4E77Slg6esJ78CiQ0k-13">
          <mxGeometry relative="1" as="geometry" />
        </mxCell>
        <mxCell id="gG4E77Slg6esJ78CiQ0k-18" style="edgeStyle=orthogonalEdgeStyle;rounded=0;orthogonalLoop=1;jettySize=auto;html=1;exitX=1;exitY=0.5;exitDx=0;exitDy=0;entryX=0;entryY=0.5;entryDx=0;entryDy=0;" edge="1" parent="1" source="gG4E77Slg6esJ78CiQ0k-4" target="gG4E77Slg6esJ78CiQ0k-13">
          <mxGeometry relative="1" as="geometry" />
        </mxCell>
        <mxCell id="gG4E77Slg6esJ78CiQ0k-19" style="edgeStyle=orthogonalEdgeStyle;rounded=0;orthogonalLoop=1;jettySize=auto;html=1;exitX=1;exitY=0.5;exitDx=0;exitDy=0;entryX=0;entryY=0.5;entryDx=0;entryDy=0;" edge="1" parent="1" source="gG4E77Slg6esJ78CiQ0k-5" target="gG4E77Slg6esJ78CiQ0k-13">
          <mxGeometry relative="1" as="geometry" />
        </mxCell>
        <mxCell id="gG4E77Slg6esJ78CiQ0k-64" style="edgeStyle=orthogonalEdgeStyle;rounded=0;orthogonalLoop=1;jettySize=auto;html=1;entryX=0;entryY=0.5;entryDx=0;entryDy=0;" edge="1" parent="1" source="gG4E77Slg6esJ78CiQ0k-13" target="gG4E77Slg6esJ78CiQ0k-47">
          <mxGeometry relative="1" as="geometry" />
        </mxCell>
        <mxCell id="gG4E77Slg6esJ78CiQ0k-149" style="edgeStyle=orthogonalEdgeStyle;rounded=0;orthogonalLoop=1;jettySize=auto;html=1;entryX=0;entryY=0.5;entryDx=0;entryDy=0;" edge="1" parent="1" source="gG4E77Slg6esJ78CiQ0k-13" target="gG4E77Slg6esJ78CiQ0k-68">
          <mxGeometry relative="1" as="geometry">
            <Array as="points">
              <mxPoint x="590" y="1440" />
              <mxPoint x="590" y="2340" />
            </Array>
          </mxGeometry>
        </mxCell>
        <mxCell id="gG4E77Slg6esJ78CiQ0k-150" style="edgeStyle=orthogonalEdgeStyle;rounded=0;orthogonalLoop=1;jettySize=auto;html=1;entryX=0;entryY=0.5;entryDx=0;entryDy=0;" edge="1" parent="1" source="gG4E77Slg6esJ78CiQ0k-13" target="gG4E77Slg6esJ78CiQ0k-66">
          <mxGeometry relative="1" as="geometry">
            <Array as="points">
              <mxPoint x="590" y="1440" />
              <mxPoint x="590" y="2430" />
            </Array>
          </mxGeometry>
        </mxCell>
        <mxCell id="gG4E77Slg6esJ78CiQ0k-151" style="edgeStyle=orthogonalEdgeStyle;rounded=0;orthogonalLoop=1;jettySize=auto;html=1;entryX=0;entryY=0.75;entryDx=0;entryDy=0;" edge="1" parent="1" source="gG4E77Slg6esJ78CiQ0k-13" target="gG4E77Slg6esJ78CiQ0k-69">
          <mxGeometry relative="1" as="geometry">
            <Array as="points">
              <mxPoint x="590" y="1440" />
              <mxPoint x="590" y="2545" />
            </Array>
          </mxGeometry>
        </mxCell>
        <mxCell id="gG4E77Slg6esJ78CiQ0k-13" value="Подготовлена основа для разработки" style="rounded=1;whiteSpace=wrap;html=1;" vertex="1" parent="1">
          <mxGeometry x="430" y="1410" width="120" height="60" as="geometry" />
        </mxCell>
        <mxCell id="gG4E77Slg6esJ78CiQ0k-48" style="edgeStyle=orthogonalEdgeStyle;rounded=0;orthogonalLoop=1;jettySize=auto;html=1;entryX=0;entryY=0.5;entryDx=0;entryDy=0;" edge="1" parent="1" source="gG4E77Slg6esJ78CiQ0k-47" target="Jw_Es80HdWXodM1tKVZ8-18">
          <mxGeometry relative="1" as="geometry" />
        </mxCell>
        <mxCell id="gG4E77Slg6esJ78CiQ0k-49" style="edgeStyle=orthogonalEdgeStyle;rounded=0;orthogonalLoop=1;jettySize=auto;html=1;entryX=0;entryY=0.75;entryDx=0;entryDy=0;" edge="1" parent="1" source="gG4E77Slg6esJ78CiQ0k-47" target="Jw_Es80HdWXodM1tKVZ8-15">
          <mxGeometry relative="1" as="geometry" />
        </mxCell>
        <mxCell id="gG4E77Slg6esJ78CiQ0k-50" style="edgeStyle=orthogonalEdgeStyle;rounded=0;orthogonalLoop=1;jettySize=auto;html=1;entryX=0;entryY=0.5;entryDx=0;entryDy=0;" edge="1" parent="1" source="gG4E77Slg6esJ78CiQ0k-47" target="Jw_Es80HdWXodM1tKVZ8-8">
          <mxGeometry relative="1" as="geometry" />
        </mxCell>
        <mxCell id="gG4E77Slg6esJ78CiQ0k-51" style="edgeStyle=orthogonalEdgeStyle;rounded=0;orthogonalLoop=1;jettySize=auto;html=1;entryX=0;entryY=0.5;entryDx=0;entryDy=0;" edge="1" parent="1" source="gG4E77Slg6esJ78CiQ0k-47" target="Jw_Es80HdWXodM1tKVZ8-10">
          <mxGeometry relative="1" as="geometry" />
        </mxCell>
        <mxCell id="gG4E77Slg6esJ78CiQ0k-52" style="edgeStyle=orthogonalEdgeStyle;rounded=0;orthogonalLoop=1;jettySize=auto;html=1;entryX=0;entryY=0.5;entryDx=0;entryDy=0;" edge="1" parent="1" source="gG4E77Slg6esJ78CiQ0k-47" target="Jw_Es80HdWXodM1tKVZ8-11">
          <mxGeometry relative="1" as="geometry" />
        </mxCell>
        <mxCell id="gG4E77Slg6esJ78CiQ0k-53" style="edgeStyle=orthogonalEdgeStyle;rounded=0;orthogonalLoop=1;jettySize=auto;html=1;entryX=0;entryY=0.75;entryDx=0;entryDy=0;" edge="1" parent="1" source="gG4E77Slg6esJ78CiQ0k-47" target="Jw_Es80HdWXodM1tKVZ8-13">
          <mxGeometry relative="1" as="geometry" />
        </mxCell>
        <mxCell id="gG4E77Slg6esJ78CiQ0k-54" style="edgeStyle=orthogonalEdgeStyle;rounded=0;orthogonalLoop=1;jettySize=auto;html=1;entryX=0;entryY=0.5;entryDx=0;entryDy=0;" edge="1" parent="1" source="gG4E77Slg6esJ78CiQ0k-47" target="Jw_Es80HdWXodM1tKVZ8-22">
          <mxGeometry relative="1" as="geometry" />
        </mxCell>
        <mxCell id="gG4E77Slg6esJ78CiQ0k-56" style="edgeStyle=orthogonalEdgeStyle;rounded=0;orthogonalLoop=1;jettySize=auto;html=1;entryX=0;entryY=0.5;entryDx=0;entryDy=0;" edge="1" parent="1" source="gG4E77Slg6esJ78CiQ0k-47" target="Jw_Es80HdWXodM1tKVZ8-20">
          <mxGeometry relative="1" as="geometry" />
        </mxCell>
        <mxCell id="gG4E77Slg6esJ78CiQ0k-57" style="edgeStyle=orthogonalEdgeStyle;rounded=0;orthogonalLoop=1;jettySize=auto;html=1;entryX=0;entryY=0.75;entryDx=0;entryDy=0;" edge="1" parent="1" source="gG4E77Slg6esJ78CiQ0k-47" target="Jw_Es80HdWXodM1tKVZ8-21">
          <mxGeometry relative="1" as="geometry" />
        </mxCell>
        <mxCell id="gG4E77Slg6esJ78CiQ0k-58" style="edgeStyle=orthogonalEdgeStyle;rounded=0;orthogonalLoop=1;jettySize=auto;html=1;entryX=0;entryY=0.5;entryDx=0;entryDy=0;fillColor=#e51400;strokeColor=#B20000;strokeWidth=3;" edge="1" parent="1" source="gG4E77Slg6esJ78CiQ0k-47" target="Jw_Es80HdWXodM1tKVZ8-24">
          <mxGeometry relative="1" as="geometry" />
        </mxCell>
        <mxCell id="gG4E77Slg6esJ78CiQ0k-59" style="edgeStyle=orthogonalEdgeStyle;rounded=0;orthogonalLoop=1;jettySize=auto;html=1;entryX=0;entryY=0.5;entryDx=0;entryDy=0;" edge="1" parent="1" source="gG4E77Slg6esJ78CiQ0k-47" target="Jw_Es80HdWXodM1tKVZ8-26">
          <mxGeometry relative="1" as="geometry" />
        </mxCell>
        <mxCell id="gG4E77Slg6esJ78CiQ0k-60" style="edgeStyle=orthogonalEdgeStyle;rounded=0;orthogonalLoop=1;jettySize=auto;html=1;entryX=0;entryY=0.5;entryDx=0;entryDy=0;" edge="1" parent="1" source="gG4E77Slg6esJ78CiQ0k-47" target="Jw_Es80HdWXodM1tKVZ8-27">
          <mxGeometry relative="1" as="geometry" />
        </mxCell>
        <mxCell id="gG4E77Slg6esJ78CiQ0k-61" style="edgeStyle=orthogonalEdgeStyle;rounded=0;orthogonalLoop=1;jettySize=auto;html=1;entryX=0;entryY=0.75;entryDx=0;entryDy=0;" edge="1" parent="1" source="gG4E77Slg6esJ78CiQ0k-47" target="Jw_Es80HdWXodM1tKVZ8-28">
          <mxGeometry relative="1" as="geometry" />
        </mxCell>
        <mxCell id="gG4E77Slg6esJ78CiQ0k-62" style="edgeStyle=orthogonalEdgeStyle;rounded=0;orthogonalLoop=1;jettySize=auto;html=1;entryX=0;entryY=0.75;entryDx=0;entryDy=0;" edge="1" parent="1" source="gG4E77Slg6esJ78CiQ0k-47" target="Jw_Es80HdWXodM1tKVZ8-29">
          <mxGeometry relative="1" as="geometry" />
        </mxCell>
        <mxCell id="gG4E77Slg6esJ78CiQ0k-65" style="edgeStyle=orthogonalEdgeStyle;rounded=0;orthogonalLoop=1;jettySize=auto;html=1;entryX=0;entryY=0.5;entryDx=0;entryDy=0;" edge="1" parent="1" source="gG4E77Slg6esJ78CiQ0k-47" target="Jw_Es80HdWXodM1tKVZ8-16">
          <mxGeometry relative="1" as="geometry" />
        </mxCell>
        <mxCell id="gG4E77Slg6esJ78CiQ0k-120" style="edgeStyle=orthogonalEdgeStyle;rounded=0;orthogonalLoop=1;jettySize=auto;html=1;entryX=0;entryY=0.5;entryDx=0;entryDy=0;" edge="1" parent="1" source="gG4E77Slg6esJ78CiQ0k-47" target="Jw_Es80HdWXodM1tKVZ8-14">
          <mxGeometry relative="1" as="geometry" />
        </mxCell>
        <mxCell id="gG4E77Slg6esJ78CiQ0k-121" style="edgeStyle=orthogonalEdgeStyle;rounded=0;orthogonalLoop=1;jettySize=auto;html=1;entryX=0;entryY=0.5;entryDx=0;entryDy=0;" edge="1" parent="1" source="gG4E77Slg6esJ78CiQ0k-47" target="Jw_Es80HdWXodM1tKVZ8-9">
          <mxGeometry relative="1" as="geometry" />
        </mxCell>
        <mxCell id="gG4E77Slg6esJ78CiQ0k-122" style="edgeStyle=orthogonalEdgeStyle;rounded=0;orthogonalLoop=1;jettySize=auto;html=1;entryX=0;entryY=0.5;entryDx=0;entryDy=0;" edge="1" parent="1" source="gG4E77Slg6esJ78CiQ0k-47" target="Jw_Es80HdWXodM1tKVZ8-2">
          <mxGeometry relative="1" as="geometry" />
        </mxCell>
        <mxCell id="gG4E77Slg6esJ78CiQ0k-152" style="edgeStyle=orthogonalEdgeStyle;rounded=0;orthogonalLoop=1;jettySize=auto;html=1;entryX=0;entryY=0.5;entryDx=0;entryDy=0;" edge="1" parent="1" source="gG4E77Slg6esJ78CiQ0k-47" target="Jw_Es80HdWXodM1tKVZ8-5">
          <mxGeometry relative="1" as="geometry" />
        </mxCell>
        <mxCell id="gG4E77Slg6esJ78CiQ0k-47" value="Создание основных компонентов сайта" style="rounded=0;whiteSpace=wrap;html=1;" vertex="1" parent="1">
          <mxGeometry x="620" y="1410" width="120" height="60" as="geometry" />
        </mxCell>
        <mxCell id="gG4E77Slg6esJ78CiQ0k-147" style="edgeStyle=orthogonalEdgeStyle;rounded=0;orthogonalLoop=1;jettySize=auto;html=1;" edge="1" parent="1" source="gG4E77Slg6esJ78CiQ0k-66">
          <mxGeometry relative="1" as="geometry">
            <mxPoint x="1890" y="2100" as="targetPoint" />
          </mxGeometry>
        </mxCell>
        <mxCell id="gG4E77Slg6esJ78CiQ0k-66" value="&lt;span style=&quot;font-size: 7pt; font-family: &amp;quot;Times New Roman&amp;quot;, serif;&quot; lang=&quot;AZ-CYR&quot;&gt;&lt;b&gt;SSL certificate&lt;/b&gt;&lt;/span&gt;" style="rounded=1;whiteSpace=wrap;html=1;" vertex="1" parent="1">
          <mxGeometry x="860" y="2410" width="120" height="60" as="geometry" />
        </mxCell>
        <mxCell id="gG4E77Slg6esJ78CiQ0k-142" style="edgeStyle=orthogonalEdgeStyle;rounded=0;orthogonalLoop=1;jettySize=auto;html=1;entryX=0.5;entryY=1;entryDx=0;entryDy=0;" edge="1" parent="1" source="gG4E77Slg6esJ78CiQ0k-68" target="gG4E77Slg6esJ78CiQ0k-140">
          <mxGeometry relative="1" as="geometry" />
        </mxCell>
        <mxCell id="gG4E77Slg6esJ78CiQ0k-146" style="edgeStyle=orthogonalEdgeStyle;rounded=0;orthogonalLoop=1;jettySize=auto;html=1;entryX=0.5;entryY=1;entryDx=0;entryDy=0;" edge="1" parent="1" source="gG4E77Slg6esJ78CiQ0k-68" target="gG4E77Slg6esJ78CiQ0k-143">
          <mxGeometry relative="1" as="geometry">
            <Array as="points">
              <mxPoint x="1890" y="2340" />
            </Array>
          </mxGeometry>
        </mxCell>
        <mxCell id="gG4E77Slg6esJ78CiQ0k-68" value="&lt;span style=&quot;font-size: 7pt; font-family: &amp;quot;Times New Roman&amp;quot;, serif;&quot; lang=&quot;AZ-CYR&quot;&gt;Выбор окружения&lt;/span&gt;&lt;div&gt;&lt;span style=&quot;font-size: 7pt; font-family: &amp;quot;Times New Roman&amp;quot;, serif;&quot; lang=&quot;AZ-CYR&quot;&gt;&lt;span style=&quot;font-size: 7pt;&quot; lang=&quot;AZ-CYR&quot;&gt;Настройка&lt;/span&gt;&lt;br&gt;&lt;/span&gt;&lt;/div&gt;" style="rounded=1;whiteSpace=wrap;html=1;" vertex="1" parent="1">
          <mxGeometry x="860" y="2310" width="120" height="60" as="geometry" />
        </mxCell>
        <mxCell id="gG4E77Slg6esJ78CiQ0k-148" style="edgeStyle=orthogonalEdgeStyle;rounded=0;orthogonalLoop=1;jettySize=auto;html=1;" edge="1" parent="1" source="gG4E77Slg6esJ78CiQ0k-69">
          <mxGeometry relative="1" as="geometry">
            <mxPoint x="1890" y="2110" as="targetPoint" />
          </mxGeometry>
        </mxCell>
        <mxCell id="gG4E77Slg6esJ78CiQ0k-69" value="Разрешение на обработку персональных данных" style="rounded=0;whiteSpace=wrap;html=1;" vertex="1" parent="1">
          <mxGeometry x="860" y="2500" width="120" height="60" as="geometry" />
        </mxCell>
        <mxCell id="gG4E77Slg6esJ78CiQ0k-139" style="edgeStyle=orthogonalEdgeStyle;rounded=0;orthogonalLoop=1;jettySize=auto;html=1;entryX=0;entryY=0.5;entryDx=0;entryDy=0;fillColor=#e51400;strokeColor=#B20000;strokeWidth=3;" edge="1" parent="1" source="gG4E77Slg6esJ78CiQ0k-109" target="gG4E77Slg6esJ78CiQ0k-138">
          <mxGeometry relative="1" as="geometry" />
        </mxCell>
        <mxCell id="gG4E77Slg6esJ78CiQ0k-109" value="Тестирование моделирования" style="rounded=1;whiteSpace=wrap;html=1;" vertex="1" parent="1">
          <mxGeometry x="1320" y="1410" width="120" height="60" as="geometry" />
        </mxCell>
        <mxCell id="gG4E77Slg6esJ78CiQ0k-135" style="edgeStyle=orthogonalEdgeStyle;rounded=0;orthogonalLoop=1;jettySize=auto;html=1;exitX=0.5;exitY=1;exitDx=0;exitDy=0;entryX=0.25;entryY=1;entryDx=0;entryDy=0;" edge="1" parent="1" source="Jw_Es80HdWXodM1tKVZ8-23" target="Jw_Es80HdWXodM1tKVZ8-23">
          <mxGeometry relative="1" as="geometry" />
        </mxCell>
        <mxCell id="gG4E77Slg6esJ78CiQ0k-141" style="edgeStyle=orthogonalEdgeStyle;rounded=0;orthogonalLoop=1;jettySize=auto;html=1;entryX=0.5;entryY=0;entryDx=0;entryDy=0;fillColor=#e51400;strokeColor=#B20000;strokeWidth=3;" edge="1" parent="1" source="gG4E77Slg6esJ78CiQ0k-138" target="gG4E77Slg6esJ78CiQ0k-140">
          <mxGeometry relative="1" as="geometry" />
        </mxCell>
        <mxCell id="gG4E77Slg6esJ78CiQ0k-145" style="edgeStyle=orthogonalEdgeStyle;rounded=0;orthogonalLoop=1;jettySize=auto;html=1;entryX=0.5;entryY=0;entryDx=0;entryDy=0;" edge="1" parent="1" source="gG4E77Slg6esJ78CiQ0k-138" target="gG4E77Slg6esJ78CiQ0k-143">
          <mxGeometry relative="1" as="geometry" />
        </mxCell>
        <mxCell id="gG4E77Slg6esJ78CiQ0k-138" value="Интеграционное тестирование" style="rounded=0;whiteSpace=wrap;html=1;" vertex="1" parent="1">
          <mxGeometry x="1510" y="1410" width="120" height="60" as="geometry" />
        </mxCell>
        <mxCell id="gG4E77Slg6esJ78CiQ0k-144" style="edgeStyle=orthogonalEdgeStyle;rounded=0;orthogonalLoop=1;jettySize=auto;html=1;fillColor=#e51400;strokeColor=#B20000;strokeWidth=3;" edge="1" parent="1" source="gG4E77Slg6esJ78CiQ0k-140" target="gG4E77Slg6esJ78CiQ0k-143">
          <mxGeometry relative="1" as="geometry" />
        </mxCell>
        <mxCell id="gG4E77Slg6esJ78CiQ0k-140" value="&lt;span style=&quot;font-size: 7pt; font-family: &amp;quot;Times New Roman&amp;quot;, serif;&quot; lang=&quot;AZ-CYR&quot;&gt;Функциональное тестирование&lt;/span&gt;" style="rounded=0;whiteSpace=wrap;html=1;" vertex="1" parent="1">
          <mxGeometry x="1510" y="2050" width="120" height="60" as="geometry" />
        </mxCell>
        <mxCell id="gG4E77Slg6esJ78CiQ0k-143" value="конец" style="rounded=0;whiteSpace=wrap;html=1;" vertex="1" parent="1">
          <mxGeometry x="1830" y="2050" width="120" height="60" as="geometry" />
        </mxCell>
      </root>
    </mxGraphModel>
  </diagram>
</mxfile>
